<svg width="884" height="1024" viewBox="0 0 884 1024" fill="none" xmlns="http://www.w3.org/2000/svg">
<path d="M860.634 729.066L886.675 740.155L861.174 751.366C859.432 753.926 857.128 756.308 854.327 758.308C844.382 765.408 831.925 765.008 826.503 757.414L745.627 644.135C740.205 636.541 743.872 624.629 753.817 617.529C763.761 610.429 776.219 610.829 781.64 618.423L860.634 729.066Z" fill="#D0CDE1"/>
<path fill-rule="evenodd" clip-rule="evenodd" d="M693.385 825.668L732.042 850.557L701.142 860.455C699.345 863.926 696.72 867.035 693.32 869.462C681.858 877.646 665.932 874.988 657.749 863.526L509.644 656.084C501.461 644.622 504.119 628.697 515.581 620.514C527.043 612.331 542.968 614.988 551.151 626.45L693.385 825.668Z" fill="#D0CDE1"/>
<path fill-rule="evenodd" clip-rule="evenodd" d="M669.12 980.175L700.856 994.465L669.697 1007.81C667.889 1010.87 665.426 1013.62 662.345 1015.82C650.546 1024.24 634.152 1021.5 625.728 1009.71L531.306 877.454C522.882 865.655 525.618 849.261 537.417 840.837C549.215 832.413 565.609 835.149 574.033 846.948L668.456 979.2C668.685 979.522 668.907 979.847 669.12 980.175Z" fill="#D0CDE1"/>
<g filter="url(#filter0_d)">
<path fill-rule="evenodd" clip-rule="evenodd" d="M576.914 486.563L569.848 447.84L549.506 472.689C545.906 473.312 542.387 474.734 539.215 476.999C527.921 485.062 525.303 500.754 533.365 512.047L652.377 678.74C660.44 690.033 676.131 692.652 687.425 684.589C698.718 676.526 701.337 660.835 693.274 649.542L576.914 486.563Z" fill="#3F3D56"/>
</g>
<path fill-rule="evenodd" clip-rule="evenodd" d="M296.931 573.702L289.441 530.082L265.847 558.512C261.748 559.239 257.743 560.867 254.13 563.447C241.151 572.713 238.142 590.746 247.408 603.725L379.665 788.971C388.932 801.95 406.965 804.959 419.944 795.693C432.923 786.427 435.932 768.393 426.666 755.414L296.931 573.702Z" fill="#3F3D56"/>
<rect width="284.504" height="47.3786" rx="23.6893" transform="matrix(0.568612 0.822606 -0.820793 0.571226 287.52 138.272)" fill="#C4C4C4"/>
<path fill-rule="evenodd" clip-rule="evenodd" d="M403.362 541.054L434.901 555.774L403.562 568.695C401.713 571.733 399.213 574.442 396.102 576.6C384.19 584.862 367.835 581.903 359.572 569.99L266.96 436.464C258.698 424.551 261.657 408.196 273.57 399.934C285.482 391.672 301.837 394.631 310.1 406.543L402.711 540.07C402.937 540.395 403.154 540.723 403.362 541.054Z" fill="#D0CDE1"/>
<path fill-rule="evenodd" clip-rule="evenodd" d="M326.679 27.8692L320.612 -8.27332L301.426 14.6011C298.077 15.1371 294.793 16.4174 291.819 18.4868C281.239 25.8503 278.603 40.416 285.933 51.0201L394.286 207.773C401.616 218.377 416.135 221.004 426.716 213.64C437.297 206.277 439.932 191.711 432.602 181.107L326.679 27.8692Z" fill="#3F3D56" fill-opacity="0.26"/>
<path fill-rule="evenodd" clip-rule="evenodd" d="M65.7862 105.446L59.3882 64.7399L37.1393 90.9066C33.3267 91.5323 29.589 92.9986 26.2023 95.3556C14.0424 103.818 11.0138 120.558 19.4377 132.745L139.851 306.945C148.275 319.132 164.961 322.151 177.121 313.688C189.281 305.226 192.31 288.486 183.886 276.299L65.7862 105.446Z" fill="#3F3D56" fill-opacity="0.26"/>
<defs>
<filter id="filter0_d" x="511.32" y="445.84" width="214.186" height="259.349" filterUnits="userSpaceOnUse" color-interpolation-filters="sRGB">
<feFlood flood-opacity="0" result="BackgroundImageFix"/>
<feColorMatrix in="SourceAlpha" type="matrix" values="0 0 0 0 0 0 0 0 0 0 0 0 0 0 0 0 0 0 127 0"/>
<feOffset dy="2"/>
<feGaussianBlur stdDeviation="2"/>
<feColorMatrix type="matrix" values="0 0 0 0 0 0 0 0 0 0 0 0 0 0 0 0 0 0 0.25 0"/>
<feBlend mode="normal" in2="BackgroundImageFix" result="effect1_dropShadow"/>
<feBlend mode="normal" in="SourceGraphic" in2="effect1_dropShadow" result="shape"/>
</filter>
</defs>
</svg>
